<?xml version="1.0" encoding="UTF-8"?>
<svg version="1.1" xmlns="http://www.w3.org/2000/svg" width="3840" height="3840">
<path d="M0 0 C1.580892 -0.00124658 3.16178371 -0.00292963 4.74267485 -0.00500236 C9.06027615 -0.00941447 13.37785577 -0.00768865 17.69545761 -0.00490058 C22.42030074 -0.0029663 27.14513986 -0.00686793 31.86998186 -0.00999737 C40.17395393 -0.01469834 48.47792005 -0.01569894 56.78189325 -0.01426902 C69.21363473 -0.01214409 81.64537007 -0.0157666 94.0771106 -0.0204838 C115.2669217 -0.02835059 136.45673112 -0.03144551 157.64654356 -0.03192973 C179.12031529 -0.03243226 200.59408483 -0.03507402 222.06785589 -0.04033732 C223.43799293 -0.04067087 224.80812996 -0.04100433 226.17826699 -0.04133773 C231.70289153 -0.04268589 237.22751606 -0.04404919 242.75214058 -0.04542983 C303.48943724 -0.06058701 364.22673342 -0.06737132 424.96403167 -0.0718518 C426.11609006 -0.07193683 426.11609006 -0.07193683 427.29142236 -0.07202359 C431.17644159 -0.07231011 435.06146082 -0.07259515 438.94648006 -0.0728777 C471.5166113 -0.07525427 504.08674234 -0.07896425 536.65687343 -0.0829148 C552.26223851 -0.08480746 567.8676036 -0.08663597 583.4729687 -0.088449 C584.63721876 -0.08858429 584.63721876 -0.08858429 585.82498902 -0.0887223 C623.18005826 -0.09305841 660.53512753 -0.09698676 697.89019686 -0.10044932 C698.68702423 -0.1005232 699.48385159 -0.10059707 700.30482524 -0.10067318 C751.0799008 -0.10536756 801.8549763 -0.10819093 852.63005204 -0.1098361 C856.79231316 -0.10997168 860.95457428 -0.11011071 865.1168354 -0.11024964 C871.78980808 -0.11047212 878.46278075 -0.11069348 885.13575342 -0.11091352 C885.96263676 -0.11094079 886.7895201 -0.11096806 887.64146051 -0.11099616 C889.31264996 -0.11105127 890.98383941 -0.11110639 892.65502886 -0.11116149 C904.3776796 -0.1115481 916.10033034 -0.11193605 927.82298108 -0.11233062 C932.01754806 -0.11247173 936.21211504 -0.11261181 940.40668201 -0.11274952 C1019.60506808 -0.11535296 1098.8034522 -0.12067774 1178.00183684 -0.13663173 C1178.83525059 -0.13679952 1179.66866435 -0.13696731 1180.52733307 -0.13714019 C1206.56646215 -0.14239081 1232.60559115 -0.14796519 1258.64472014 -0.1535995 C1285.36372411 -0.15938077 1312.08272808 -0.16511147 1338.80173212 -0.17055583 C1340.03587281 -0.17080754 1340.03587281 -0.17080754 1341.29494564 -0.17106434 C1392.85204075 -0.18156328 1444.40913531 -0.18842074 1495.96623141 -0.19142222 C1497.16132688 -0.19149244 1497.16132688 -0.19149244 1498.3805657 -0.19156408 C1533.37722617 -0.19361509 1568.37388662 -0.19485888 1603.37054714 -0.19521013 C1617.4514522 -0.19535339 1631.53235726 -0.19559205 1645.61326232 -0.19587419 C1647.94783954 -0.19591972 1650.28241677 -0.19596137 1652.616994 -0.1960023 C1688.29051166 -0.19664775 1723.96402708 -0.19959245 1759.6375435 -0.20946288 C1760.40577458 -0.20967525 1761.17400567 -0.20988762 1761.96551648 -0.21010643 C1774.32187149 -0.21353481 1786.67822645 -0.2171479 1799.0345814 -0.22078283 C1834.14738454 -0.23110712 1869.26018491 -0.23987407 1904.37298983 -0.23793817 C1905.08679045 -0.23789943 1905.80059106 -0.23786069 1906.536022 -0.23782078 C1922.11614073 -0.23694381 1937.69625925 -0.235231 1953.27637779 -0.23270115 C1959.49204326 -0.23170452 1965.70770874 -0.23081782 1971.92337424 -0.22996593 C1972.94035485 -0.22982209 1972.94035485 -0.22982209 1973.97788053 -0.22967536 C1996.06128551 -0.22660575 2018.14466999 -0.23360838 2040.22807237 -0.24553929 C2061.30215569 -0.25671394 2082.37621672 -0.25707761 2103.45030041 -0.24616911 C2115.78385746 -0.24010298 2128.11734698 -0.24208591 2140.45089756 -0.25642108 C2148.67153908 -0.26514135 2156.89213157 -0.26271406 2165.11277016 -0.25172237 C2169.75386657 -0.24581441 2174.39483193 -0.24414829 2179.03591894 -0.25640723 C2243.28108303 -0.41480496 2307.12317074 7.33761537 2369.63812834 22.1276505 C2370.35386015 22.29653783 2371.06959196 22.46542516 2371.80701262 22.63943028 C2426.91857857 35.69977615 2480.56161582 54.54995925 2531.76068693 78.76681066 C2534.7530898 80.18201968 2537.75224341 81.58230826 2540.75140959 82.98311925 C2586.14314876 104.32973501 2629.10548059 130.62990104 2669.63812834 160.1276505 C2670.35533049 160.64649816 2671.07253264 161.16534581 2671.81146818 161.69991612 C2682.46091109 169.41181171 2692.82652128 177.37592544 2702.96185881 185.75118566 C2705.20576146 187.59376112 2707.48333832 189.39226731 2709.76312834 191.1901505 C2719.12377302 198.66293407 2728.13503729 206.56451357 2736.94281584 214.67843175 C2739.10290957 216.64129953 2741.28381488 218.56796857 2743.48578459 220.48311925 C2755.02146128 230.55388381 2765.92586005 241.31667096 2776.76312834 252.1276505 C2777.25394896 252.61588292 2777.74476958 253.10411534 2778.25046355 253.60714269 C2783.35437495 258.68976952 2788.34523447 263.8076248 2793.03314787 269.27755284 C2795.76186479 272.42300718 2798.6490588 275.41846265 2801.51312834 278.4401505 C2806.43306607 283.6671371 2811.09187516 288.98627912 2815.57172209 294.5964005 C2817.63925616 297.12903203 2819.79926175 299.5349621 2822.01312834 301.9401505 C2827.00807851 307.43545837 2831.54803671 313.25207011 2836.0844174 319.12374425 C2837.74678152 321.26778646 2839.42185271 323.40145705 2841.09906584 325.5339005 C2847.70164346 333.94339522 2854.15225071 342.41993039 2860.27631193 351.18429112 C2861.81133143 353.37481734 2863.35933534 355.55588455 2864.90765959 357.7370255 C2885.39452826 386.67883773 2903.84876411 416.90228019 2920.63812834 448.1276505 C2921.25397795 449.2728214 2921.86982756 450.4179923 2922.50433928 451.59786534 C2962.69793892 526.80655557 2990.24675016 608.70845589 3014.88812834 755.6276505 C3015.00382674 756.69349874 3015.00382674 756.69349874 3015.12186247 757.78087926 C3018.0865948 785.49331185 3018.93881071 813.08921699 3018.89551687 840.93270407 C3018.8904462 845.66551572 3018.89720512 850.39831498 3018.90232053 855.13112459 C3018.90970914 863.42735112 3018.90979507 871.72355192 3018.90493105 880.01977996 C3018.89768549 892.43970393 3018.9020779 904.85960597 3018.9086124 917.27952937 C3018.91941438 938.45466935 3018.92077798 959.62980041 3018.91691405 980.80494237 C3018.91303213 1002.25025975 3018.91348624 1023.69556884 3018.91922385 1045.14088559 C3018.9194031 1045.8187189 3018.91958235 1046.49655221 3018.91976703 1047.19492592 C3018.92141003 1053.40741682 3018.92309564 1059.6199077 3018.92483266 1065.83239857 C3018.9291808 1081.40745529 3018.93281672 1096.98251214 3018.935965 1112.55756915 C3018.93610945 1113.27109212 3018.9362539 1113.98461509 3018.93640273 1114.71975997 C3018.94344469 1149.84932308 3018.94281356 1184.97888559 3018.94128424 1220.10844922 C3018.94123463 1221.24987283 3018.94123463 1221.24987283 3018.94118402 1222.41435551 C3018.9410497 1225.4951226 3018.94091456 1228.5758897 3018.94077864 1231.65665679 C3018.94040345 1240.16764215 3018.94004578 1248.67862751 3018.93971092 1257.18961287 C3018.9396802 1257.95809544 3018.93964948 1258.72657802 3018.93961784 1259.51834795 C3018.93824226 1294.39092933 3018.9407768 1329.26351001 3018.94423698 1364.1360912 C3018.94470022 1368.80496678 3018.94515208 1373.47384237 3018.94560111 1378.14271795 C3018.94567538 1378.91451728 3018.94574966 1379.68631661 3018.94582619 1380.4815038 C3018.94597635 1382.04181308 3018.94612647 1383.60212236 3018.94627655 1385.16243165 C3018.94665263 1389.0694714 3018.9470301 1392.97651116 3018.94740764 1396.88355092 C3018.94748244 1397.65822112 3018.94755724 1398.43289131 3018.94763431 1399.23103636 C3018.9480128 1403.14853492 3018.94839272 1407.06603348 3018.94877526 1410.98353204 C3018.95234302 1447.54091335 3018.95520753 1484.0982947 3018.95736796 1520.65567613 C3018.9574152 1521.45213062 3018.95746243 1522.24858512 3018.9575111 1523.0691746 C3018.96050483 1573.80352509 3018.96038168 1624.53787504 3018.95794718 1675.27222554 C3018.95782759 1677.76600768 3018.95770921 1680.25978982 3018.95759109 1682.75357196 C3018.95671971 1701.10892663 3018.95578911 1719.4642813 3018.95484046 1737.81963596 C3018.95475407 1739.49353569 3018.9546677 1741.16743542 3018.95458134 1742.84133515 C3018.9544949 1744.51591283 3018.95440846 1746.19049051 3018.95432201 1747.86506818 C3018.95427922 1748.69422466 3018.95423643 1749.52338114 3018.95419234 1750.37766357 C3018.95397595 1754.56722728 3018.95375851 1758.756791 3018.95353911 1762.94635471 C3018.94940106 1842.06670392 3018.94832142 1921.18705047 3018.96069914 2000.30739903 C3018.96082942 2001.14028764 3018.96095971 2001.97317625 3018.96109394 2002.83130391 C3018.96504589 2028.01770515 3018.96940545 2053.20410632 3018.97386509 2078.39050748 C3018.97874141 2105.93254653 3018.9835755 2133.47458559 3018.98814684 2161.01662469 C3018.98828361 2161.83895064 3018.98842038 2162.66127658 3018.9885613 2163.5085215 C3018.99712057 2215.03731447 3019.0020201 2266.56610669 3019.00285441 2318.09490037 C3019.00287431 2319.28929151 3019.00287431 2319.28929151 3019.00289462 2320.50781176 C3019.00347004 2355.48316999 3019.00318496 2390.45852818 3019.00197591 2425.43388639 C3019.00151673 2438.72710539 3019.00112448 2452.02032438 3019.00076515 2465.31354338 C3019.00068089 2468.42521452 3019.00059162 2471.53688566 3019.00049833 2474.64855681 C3018.99944391 2510.29507462 3019.00051124 2545.94159047 3019.00817329 2581.58810759 C3019.00833793 2582.35567048 3019.00850257 2583.12323338 3019.00867221 2583.91405576 C3019.01133013 2596.25933965 3019.01414933 2608.6046235 3019.01697623 2620.94990735 C3019.02499888 2656.02899798 3019.0313316 2691.10808572 3019.02690738 2726.1871773 C3019.02681798 2726.90026864 3019.02672858 2727.61335999 3019.02663647 2728.34806016 C3019.02465209 2743.91244811 3019.02181597 2759.4768358 3019.01814595 2775.04122344 C3019.01669393 2781.25048352 3019.01534963 2787.45974362 3019.01403815 2793.66900373 C3019.01389208 2794.34628828 3019.01374601 2795.02357284 3019.01359552 2795.72138117 C3019.00888984 2817.7815403 3019.0142285 2839.84167974 3019.02447834 2861.90183741 C3019.03404656 2882.95335339 3019.03279902 2904.00484624 3019.02027211 2925.0563609 C3019.01325719 2937.37636707 3019.01427383 2949.69630647 3019.0276205 2962.01630778 C3019.03568182 2970.22784578 3019.03260484 2978.43933391 3019.02097086 2986.65086743 C3019.01469964 2991.28674746 3019.01266399 2995.92249694 3019.02453807 3000.55836904 C3019.06976602 3019.54267661 3018.62638654 3038.3969477 3017.25533271 3057.33675379 C3017.1631087 3058.61253298 3017.1631087 3058.61253298 3017.06902158 3059.91408549 C3010.95998685 3142.62258072 2992.54480397 3225.18013181 2939.10590178 3355.03634191 C2937.60823563 3358.19060816 2936.12664019 3361.35210794 2934.64594084 3364.51436925 C2928.13453645 3378.33973663 2921.1265457 3391.80833108 2913.63812834 3405.1276505 C2912.92753264 3406.40188878 2912.92753264 3406.40188878 2912.20258147 3407.70186925 C2896.43076927 3435.95699507 2879.02681219 3463.18619271 2859.9516049 3489.32686925 C2858.98998036 3490.64526007 2858.03142639 3491.96589205 2857.07465178 3493.28780675 C2849.35985829 3503.94178093 2841.39327904 3514.31189789 2833.01459318 3524.45138097 C2831.17201772 3526.69528362 2829.37351153 3528.97286048 2827.57562834 3531.2526505 C2820.10284477 3540.61329518 2812.20126527 3549.62455945 2804.08734709 3558.432338 C2802.12447931 3560.59243173 2800.19781027 3562.77333704 2798.28265959 3564.97530675 C2788.21189503 3576.51098344 2777.44910788 3587.41538221 2766.63812834 3598.2526505 C2766.14989592 3598.74347112 2765.6616635 3599.23429173 2765.15863615 3599.7399857 C2760.07600932 3604.84389711 2754.95815404 3609.83475663 2749.488226 3614.52267003 C2746.34277166 3617.25138695 2743.34731619 3620.13858096 2740.32562834 3623.0026505 C2735.09864174 3627.92258823 2729.77949972 3632.58139732 2724.16937834 3637.06124425 C2721.63674681 3639.12877832 2719.23081674 3641.28878391 2716.82562834 3643.5026505 C2711.33032046 3648.49760067 2705.51370873 3653.03755887 2699.64203459 3657.57393956 C2697.49799238 3659.23630368 2695.36432179 3660.91137487 2693.23187834 3662.588588 C2684.82238362 3669.19116562 2676.34584845 3675.64177287 2667.58148772 3681.76583409 C2665.3909615 3683.30085359 2663.20989429 3684.8488575 2661.02875334 3686.39718175 C2632.08694111 3706.88405042 2601.86349865 3725.33828627 2570.63812834 3742.1276505 C2568.92037199 3743.05142491 2568.92037199 3743.05142491 2567.1679135 3743.99386144 C2491.95690841 3784.18869821 2410.05499723 3811.73495702 2262.57562834 3836.3776505 C2261.83687468 3836.45478276 2261.09812102 3836.53191503 2260.33698088 3836.61138463 C2254.77590916 3837.18330712 2249.20922144 3837.66474323 2243.63812834 3838.1276505 C2242.6451606 3838.21101639 2241.65219286 3838.29438229 2240.62913519 3838.38027442 C2219.71368283 3840.08470498 2198.92881328 3840.41761865 2177.95534101 3840.38503903 C2173.22272164 3840.37997231 2168.49011472 3840.38672573 2163.7574974 3840.39184269 C2155.46005795 3840.39923422 2147.16264423 3840.39931554 2138.86520328 3840.39445321 C2126.44346282 3840.38721015 2114.02174428 3840.39159865 2101.60000438 3840.39813455 C2080.42219517 3840.40893858 2059.24439488 3840.41029954 2038.06658369 3840.4064362 C2016.617622 3840.40255471 1995.1686686 3840.40300772 1973.71970755 3840.408746 C1973.04183831 3840.40892526 1972.36396907 3840.40910451 1971.66555833 3840.40928919 C1965.45276737 3840.41093218 1959.23997641 3840.41261779 1953.02718547 3840.41435482 C1937.45117448 3840.41870303 1921.87516336 3840.42233893 1906.29915208 3840.42548716 C1905.58557471 3840.42563161 1904.87199734 3840.42577606 1904.13679642 3840.42592489 C1869.00202905 3840.43296735 1833.86726229 3840.43233566 1798.73249441 3840.4308064 C1797.97140457 3840.43077333 1797.21031473 3840.43074025 1796.42616156 3840.43070618 C1793.34482713 3840.43057186 1790.26349271 3840.43043671 1787.18215828 3840.4303008 C1778.6696483 3840.42992561 1770.15713832 3840.42956794 1761.64462835 3840.42923307 C1760.87601139 3840.42920236 1760.10739444 3840.42917164 1759.31548607 3840.42914 C1724.43897341 3840.42776451 1689.56246145 3840.43029881 1654.68594899 3840.43375914 C1650.01674984 3840.43422238 1645.34755069 3840.43467424 1640.67835154 3840.43512326 C1639.90649924 3840.43519754 1639.13464695 3840.43527182 1638.33940519 3840.43534835 C1636.77898966 3840.43549851 1635.21857412 3840.43564862 1633.65815859 3840.43579871 C1629.75085821 3840.43617479 1625.84355782 3840.43655226 1621.93625744 3840.4369298 C1621.16153638 3840.4370046 1620.38681533 3840.4370794 1619.58861787 3840.43715647 C1615.67086729 3840.43753495 1611.75311671 3840.43791488 1607.83536613 3840.43829742 C1571.27544052 3840.4418652 1534.71551488 3840.44472971 1498.15558916 3840.44689012 C1497.35907453 3840.44693735 1496.5625599 3840.44698459 1495.74190846 3840.44703326 C1445.00266127 3840.45002705 1394.26341462 3840.44990379 1343.52416742 3840.44746934 C1341.03008987 3840.44734975 1338.53601233 3840.44723137 1336.04193479 3840.44711325 C1317.68434324 3840.44624187 1299.3267517 3840.44531127 1280.96916016 3840.44436262 C1279.29505179 3840.44427623 1277.62094342 3840.44418986 1275.94683504 3840.4441035 C1274.27204829 3840.44401706 1272.59726155 3840.44393062 1270.9224748 3840.44384417 C1270.0932147 3840.44380138 1269.2639546 3840.44375859 1268.4095654 3840.4437145 C1264.21947864 3840.44349811 1260.02939189 3840.44328067 1255.83930513 3840.44306127 C1176.70887026 3840.43892321 1097.57843806 3840.43784358 1018.44800383 3840.4502213 C1017.61500927 3840.45035158 1016.78201472 3840.45048187 1015.92377791 3840.4506161 C990.7342109 3840.45456805 965.54464397 3840.45892761 940.35507705 3840.46338725 C912.80966303 3840.46826356 885.26424901 3840.47309764 857.71883494 3840.477669 C856.89641167 3840.47780577 856.07398841 3840.47794254 855.22664322 3840.47808346 C803.6928928 3840.48664254 752.15914315 3840.49154224 700.62539202 3840.49237657 C699.82907094 3840.49238984 699.03274986 3840.49240311 698.21229783 3840.49241678 C663.23450569 3840.4929922 628.25671361 3840.49270713 593.27892148 3840.49149807 C579.98482147 3840.49103889 566.69072146 3840.49064664 553.39662145 3840.49028731 C550.28473453 3840.49020305 547.17284761 3840.49011378 544.06096069 3840.49002049 C508.41037587 3840.48896602 472.759793 3840.49003386 437.10920888 3840.49769545 C436.34151156 3840.49786009 435.57381423 3840.49802473 434.78285335 3840.49819437 C422.43532881 3840.5008523 410.0878043 3840.5036715 397.74027979 3840.50649839 C362.65607226 3840.51452072 327.57186763 3840.52085407 292.48765916 3840.51642954 C291.77451318 3840.51634014 291.0613672 3840.51625074 290.32661073 3840.51615863 C274.76129345 3840.51417428 259.19597644 3840.51133819 243.63065947 3840.50766811 C237.42109327 3840.50621608 231.21152705 3840.50487179 225.00196081 3840.5035603 C224.32464131 3840.50341424 223.64732181 3840.50326817 222.94947748 3840.50311768 C200.88534186 3840.4984114 178.82122593 3840.50375171 156.75709177 3840.5140005 C135.70335646 3840.52356706 114.64964428 3840.52232338 93.59591029 3840.50979427 C81.27347454 3840.50277754 68.95110554 3840.50379996 56.62867464 3840.51714266 C48.41679163 3840.5252006 40.20495851 3840.52213146 31.99307999 3840.51049302 C27.35618268 3840.50421841 22.71941595 3840.50219532 18.08252655 3840.51406023 C-62.57411978 3840.70624654 -143.95672446 3828.85482807 -242.36187166 3798.1276505 C-243.00835665 3797.91431066 -243.65484163 3797.70097081 -244.32091707 3797.48116612 C-291.74715267 3781.82049458 -338.27835623 3761.92086664 -381.88628572 3737.50802159 C-384.22173702 3736.20578869 -386.56650234 3734.92282421 -388.91655916 3733.64718175 C-407.32481348 3723.623593 -424.99088037 3712.49555982 -442.42437166 3700.8776505 C-443.11475527 3700.41805943 -443.80513887 3699.95846837 -444.51644319 3699.4849503 C-453.92876921 3693.20903816 -463.19635548 3686.75838759 -472.36187166 3680.1276505 C-473.22530184 3679.50519444 -474.08873201 3678.88273839 -474.97832674 3678.24142003 C-485.4835793 3670.64280665 -495.69182213 3662.76240055 -505.68560213 3654.50411534 C-507.92950478 3652.66153988 -510.20708164 3650.86303368 -512.48687166 3649.0651505 C-521.84751634 3641.59236693 -530.85878061 3633.69078743 -539.66655916 3625.57686925 C-541.82665289 3623.61400147 -544.0075582 3621.68733243 -546.20952791 3619.77218175 C-557.7452046 3609.70141719 -568.64960337 3598.93863004 -579.48687166 3588.1276505 C-579.97769228 3587.63941808 -580.4685129 3587.15118566 -580.97420686 3586.64815831 C-586.07811827 3581.56553147 -591.06897779 3576.4476762 -595.75689119 3570.97774816 C-598.48560811 3567.83229382 -601.37280212 3564.83683835 -604.23687166 3561.8151505 C-609.15680939 3556.5881639 -613.81561848 3551.26902188 -618.29546541 3545.6589005 C-620.36299948 3543.12626897 -622.52300507 3540.72033889 -624.73687166 3538.3151505 C-629.73182183 3532.81984262 -634.27178003 3527.00323089 -638.80816072 3521.13155675 C-640.47052484 3518.98751454 -642.14559603 3516.85384394 -643.82280916 3514.7214005 C-650.42538678 3506.31190578 -656.87599403 3497.83537061 -663.00005525 3489.07100987 C-664.53507475 3486.88048366 -666.08307866 3484.69941644 -667.63140291 3482.5182755 C-688.9988603 3452.32791456 -707.89505655 3420.71220038 -725.36187166 3388.1276505 C-725.8747574 3387.17712804 -726.38764314 3386.22660558 -726.91607088 3385.24727941 C-768.86300449 3307.27487087 -796.48719836 3220.78710638 -817.61187166 3084.6276505 C-817.72757005 3083.56180226 -817.72757005 3083.56180226 -817.84560579 3082.47442174 C-820.81033812 3054.76198915 -821.66255403 3027.16608401 -821.61926019 2999.32259692 C-821.61418952 2994.58978528 -821.62094844 2989.85698602 -821.62606385 2985.12417641 C-821.63345246 2976.82794988 -821.63353839 2968.53174907 -821.62867437 2960.23552104 C-821.62142881 2947.81559707 -821.62582122 2935.39569503 -821.63235572 2922.97577162 C-821.6431577 2901.80063165 -821.6445213 2880.62550058 -821.64065737 2859.45035863 C-821.63677545 2838.00504124 -821.63722956 2816.55973216 -821.64296716 2795.11441541 C-821.64314642 2794.4365821 -821.64332567 2793.75874879 -821.64351035 2793.06037508 C-821.64515335 2786.84788418 -821.64683896 2780.6353933 -821.64857598 2774.42290243 C-821.65292412 2758.84784571 -821.65656004 2743.27278886 -821.65970832 2727.69773185 C-821.65985277 2726.98420888 -821.65999722 2726.27068591 -821.66014605 2725.53554103 C-821.66718801 2690.40597791 -821.66655688 2655.27641541 -821.66502756 2620.14685178 C-821.66499449 2619.3859027 -821.66496141 2618.62495363 -821.66492734 2617.84094549 C-821.66479302 2614.7601784 -821.66465787 2611.6794113 -821.66452196 2608.59864421 C-821.66414677 2600.08765885 -821.6637891 2591.57667349 -821.66345423 2583.06568813 C-821.66342352 2582.29720555 -821.6633928 2581.52872298 -821.66336116 2580.73695305 C-821.66198558 2545.86437167 -821.66452012 2510.99179099 -821.6679803 2476.1192098 C-821.66844354 2471.45033421 -821.6688954 2466.78145863 -821.66934442 2462.11258305 C-821.6694187 2461.34078372 -821.66949298 2460.56898439 -821.66956951 2459.7737972 C-821.66971967 2458.21348792 -821.66986978 2456.65317864 -821.67001987 2455.09286935 C-821.67039595 2451.18582959 -821.67077342 2447.27878984 -821.67115096 2443.37175008 C-821.67122576 2442.59707988 -821.67130056 2441.82240969 -821.67137763 2441.02426464 C-821.67175612 2437.10676608 -821.67213604 2433.18926752 -821.67251858 2429.27176896 C-821.67608634 2392.71438765 -821.67895085 2356.1570063 -821.68111128 2319.59962487 C-821.68115851 2318.80317038 -821.68120575 2318.00671588 -821.68125442 2317.1861264 C-821.68424815 2266.45177591 -821.684125 2215.71742596 -821.6816905 2164.98307546 C-821.68157091 2162.48929332 -821.68145253 2159.99551118 -821.68133441 2157.50172904 C-821.68046303 2139.14637437 -821.67953243 2120.7910197 -821.67858378 2102.43566503 C-821.67849739 2100.76176531 -821.67841102 2099.08786558 -821.67832466 2097.41396585 C-821.67823822 2095.73938817 -821.67815178 2094.06481049 -821.67806533 2092.39023282 C-821.67802254 2091.56107634 -821.67797975 2090.73191986 -821.67793566 2089.87763743 C-821.67771927 2085.68807372 -821.67750183 2081.49851 -821.67728243 2077.30894629 C-821.67314438 1998.18859708 -821.67206474 1919.06825053 -821.68444246 1839.94790196 C-821.68457274 1839.11501336 -821.68470303 1838.28212475 -821.68483726 1837.42399709 C-821.68878921 1812.23759585 -821.69314877 1787.05119468 -821.69760841 1761.86479352 C-821.70248473 1734.32275447 -821.70731882 1706.78071541 -821.71189016 1679.23867631 C-821.71202693 1678.41635036 -821.7121637 1677.59402441 -821.71230462 1676.7467795 C-821.72086389 1625.21798652 -821.72576342 1573.68919431 -821.72659773 1522.16040063 C-821.726611 1521.36413987 -821.72662427 1520.56787911 -821.72663794 1519.74748924 C-821.72721336 1484.77213101 -821.72692828 1449.79677282 -821.72571923 1414.82141461 C-821.72526005 1401.52819561 -821.7248678 1388.23497661 -821.72450847 1374.94175762 C-821.72442421 1371.83008647 -821.72433494 1368.71841533 -821.72424165 1365.60674419 C-821.72318723 1329.96022638 -821.72425456 1294.31371052 -821.73191661 1258.66719341 C-821.73208125 1257.89963052 -821.73224589 1257.13206762 -821.73241553 1256.34124524 C-821.73507345 1243.99596135 -821.73789265 1231.6506775 -821.74071955 1219.30539365 C-821.7487422 1184.22630302 -821.75507492 1149.14721528 -821.7506507 1114.0681237 C-821.7505166 1112.99848668 -821.7505166 1112.99848668 -821.75037979 1111.90724084 C-821.74839541 1096.34285289 -821.74555929 1080.7784652 -821.74188927 1065.21407756 C-821.74043725 1059.00481748 -821.73909295 1052.79555738 -821.73778147 1046.58629727 C-821.7376354 1045.90901272 -821.73748933 1045.23172816 -821.73733884 1044.53391983 C-821.73263316 1022.4737607 -821.73797182 1000.41362126 -821.74822166 978.35346359 C-821.75778988 957.30194761 -821.75654234 936.25045476 -821.74401543 915.19894009 C-821.73700051 902.87893393 -821.73801715 890.55899453 -821.75136382 878.23899322 C-821.75942514 870.02745522 -821.75634815 861.81596709 -821.74471418 853.60443357 C-821.73844296 848.96855354 -821.73640731 844.33280406 -821.74828139 839.69693196 C-821.79350934 820.71262439 -821.35012985 801.8583533 -819.97907603 782.91854721 C-819.91759336 782.06802775 -819.85611069 781.21750829 -819.7927649 780.34121551 C-816.42336674 734.72388569 -809.00241095 689.59462822 -798.36187166 645.1276505 C-797.90457674 643.20179112 -797.90457674 643.20179112 -797.43804353 641.2370255 C-784.68236739 588.12051662 -766.07301159 536.37210723 -742.7227115 487.00509191 C-741.30750248 484.01268904 -739.9072139 481.01353543 -738.50640291 478.01436925 C-717.15978715 432.62263008 -690.85962112 389.66029825 -661.36187166 349.1276505 C-660.843024 348.41044835 -660.32417635 347.6932462 -659.78960603 346.95431066 C-652.07771044 336.30486775 -644.11359672 325.93925756 -635.7383365 315.80392003 C-633.89576104 313.56001738 -632.09725485 311.28244052 -630.29937166 309.0026505 C-622.82658809 299.64200581 -614.92500859 290.63074155 -606.81109041 281.822963 C-604.83602669 279.64944791 -602.89580356 277.45541834 -600.96734041 275.24093175 C-590.92338185 263.73674339 -580.20704161 252.87170648 -569.42437166 242.0651505 C-568.88653047 241.52472112 -568.34868929 240.98429173 -567.79454988 240.4274857 C-562.38909745 235.00151824 -556.96917419 229.64414184 -551.1433658 224.66402745 C-548.19269383 222.11934077 -545.38306697 219.42591707 -542.54937166 216.7526505 C-537.50276221 212.02568674 -532.32853018 207.55255907 -526.92827791 203.229213 C-524.38627803 201.14763623 -521.96657831 198.9772667 -519.54937166 196.7526505 C-514.05406378 191.75770033 -508.23745205 187.21774213 -502.36577791 182.68136144 C-500.2217357 181.01899732 -498.0880651 179.34392613 -495.95562166 177.666713 C-487.54612694 171.06413538 -479.06959177 164.61352813 -470.30523103 158.48946691 C-468.11470482 156.95444741 -465.9336376 155.4064435 -463.75249666 153.85811925 C-434.81068443 133.37125058 -404.58724197 114.91701473 -373.36187166 98.1276505 C-372.21670076 97.51180089 -371.07152986 96.89595128 -369.89165682 96.26143956 C-296.256915 56.90900138 -215.974186 29.35859741 0 0 Z " fill="#34DA50" transform="translate(821.3618716597557,-0.12765049934387207)"/>
<path d="M0 0 C4.94079233 0.00008139 9.88149219 -0.00690337 14.82226562 -0.02050781 C50.08611313 -0.11604761 85.34330717 -0.03574205 120.44506836 3.75170898 C125.36455622 4.25844195 130.28648342 4.4783618 135.22631836 4.68530273 C142.1594537 4.97781444 148.98295023 5.56633948 155.86450195 6.45263672 C161.9006165 7.21993942 167.92476744 7.62049974 173.99975586 7.93920898 C176.97631836 8.18530273 176.97631836 8.18530273 179.97631836 9.18530273 C182.47958374 9.3882702 184.96938447 9.55637471 187.47631836 9.68530273 C194.57091295 10.0501676 194.57091295 10.0501676 197.97631836 11.18530273 C199.42535472 11.374709 200.8796602 11.52545266 202.33569336 11.65014648 C203.19646484 11.72676514 204.05723633 11.80338379 204.9440918 11.88232422 C205.86222656 11.96168213 206.78036133 12.04104004 207.72631836 12.12280273 C219.1255732 13.1639502 230.39554509 14.50867707 241.66381836 16.56420898 C248.07105164 17.71342966 254.48871704 18.74229452 260.92944336 19.68530273 C261.77230896 19.80889664 262.61517456 19.93249054 263.48358154 20.05982971 C266.93502837 20.56391171 270.38690322 21.06484854 273.83959961 21.56030273 C283.0695596 22.88875275 292.15890524 24.32001715 301.22631836 26.5378418 C305.07456322 27.44387388 308.93886105 28.01497842 312.85131836 28.56030273 C323.01076046 30.07697708 332.98822792 32.27185835 343.00610352 34.52368164 C345.99708691 35.18992897 348.99153917 35.83731196 351.98803711 36.47827148 C360.51620412 38.30353961 369.02784255 40.14225784 377.47631836 42.31030273 C382.3950691 43.57139205 387.30093417 44.67197071 392.28881836 45.62280273 C400.42027031 47.20321032 408.37088594 49.33047649 416.36499023 51.48950195 C419.06948499 52.21012743 421.77935908 52.9059394 424.49194336 53.59545898 C437.23061361 56.84184279 449.79972007 60.48711589 462.35473633 64.38012695 C466.19715902 65.56026385 470.05425734 66.68774921 473.91381836 67.81030273 C479.73748792 69.51066414 485.53710806 71.27561306 491.32348633 73.09985352 C496.74218638 74.80654101 502.17272637 76.47286297 507.60546875 78.13427734 C535.33671463 86.62343425 535.33671463 86.62343425 546.12866211 91.09155273 C550.70027183 92.84745221 555.364158 94.33164887 560.03027344 95.81591797 C565.35047581 97.54024999 570.46542201 99.61125713 575.61450195 101.79052734 C579.28284745 103.3124778 582.97869154 104.75349651 586.68725586 106.17358398 C588.09115096 106.7119007 589.49504079 107.25023114 590.89892578 107.78857422 C591.62276459 108.06611542 592.34660339 108.34365662 593.09237671 108.62960815 C622.61753106 119.97721378 651.67254034 132.36019522 680.39006042 145.61422729 C684.48253992 147.50244923 688.58473277 149.36739221 692.69506836 151.21655273 C703.53540687 156.10473773 714.15508988 161.24457891 724.63256836 166.86889648 C728.54430237 168.96802217 732.49606815 170.96992719 736.47631836 172.93530273 C769.03131335 189.09645684 769.03131335 189.09645684 783.90991211 198.30639648 C787.60500711 200.57052476 791.38788701 202.62845991 795.20288086 204.68139648 C821.88406483 219.14936244 847.636414 235.50771673 872.97631836 252.18530273 C873.85489502 252.76272217 873.85489502 252.76272217 874.7512207 253.35180664 C895.94940662 267.30711532 916.61305786 282.04411879 936.97631836 297.18530273 C937.86407959 297.8448999 937.86407959 297.8448999 938.76977539 298.51782227 C946.57117407 304.3211581 954.29328533 310.22657402 961.97631836 316.18530273 C962.52513672 316.61037109 963.07395508 317.03543945 963.6394043 317.47338867 C978.06260323 328.66336613 992.0891571 340.33938686 1005.97631836 352.18530273 C1006.55510742 352.67772461 1007.13389648 353.17014648 1007.73022461 353.67749023 C1014.48745397 359.42770269 1021.19071801 365.22156903 1027.76147461 371.18530273 C1029.75044338 372.98133802 1031.7619503 374.74483577 1033.78881836 376.49780273 C1038.35146231 380.47759396 1042.79513638 384.58471719 1047.22973633 388.70581055 C1049.05189191 390.39909139 1050.87475961 392.09151275 1052.7021637 393.77912903 C1063.83305049 404.05984209 1074.61492596 414.66839003 1085.31591797 425.39453125 C1088.06289681 428.14692868 1090.81526039 430.8938617 1093.56811523 433.64038086 C1095.34122284 435.41414843 1097.11402067 437.18822573 1098.88647461 438.96264648 C1100.10222923 440.17536476 1100.10222923 440.17536476 1101.34254456 441.4125824 C1105.55611025 445.64342687 1109.60912512 449.95302384 1113.50511169 454.47828674 C1115.18621206 456.42883881 1116.92403474 458.31622603 1118.69506836 460.18530273 C1119.62899414 461.17530273 1119.62899414 461.17530273 1120.58178711 462.18530273 C1121.20698242 462.84530273 1121.83217773 463.50530273 1122.47631836 464.18530273 C1127.43287356 469.41778988 1132.26944421 474.72672335 1136.97631836 480.18530273 C1137.46471191 480.75152344 1137.95310547 481.31774414 1138.45629883 481.90112305 C1139.86157577 483.535166 1141.2633814 485.17211043 1142.66381836 486.81030273 C1143.70410975 488.02651117 1144.74447659 489.24265509 1145.78491211 490.45874023 C1146.31068848 491.07330078 1146.83646484 491.68786133 1147.37817383 492.32104492 C1148.96062442 494.16699553 1150.5477804 496.00878683 1152.13647461 497.84936523 C1157.15263738 503.66622265 1162.11885598 509.50256805 1166.87866211 515.53295898 C1168.44222385 517.50997653 1170.01701867 519.47436816 1171.60522461 521.43139648 C1179.38225634 531.03645334 1186.81324518 540.88010913 1194.19067383 550.79418945 C1195.81927608 552.97501122 1197.45870484 555.14689994 1199.10522461 557.31420898 C1226.25806583 593.08742695 1250.74553049 631.18910341 1272.97631836 670.18530273 C1273.56348633 671.21397461 1274.1506543 672.24264648 1274.75561523 673.30249023 C1301.20061739 719.8181292 1323.83328896 768.03496871 1343.10131836 817.93530273 C1343.41955566 818.75700958 1343.73779297 819.57871643 1344.06567383 820.42532349 C1347.39773571 829.05110978 1350.57578978 837.64784938 1353.15991211 846.53149414 C1353.92902779 849.03158011 1354.8315757 851.40326488 1355.85131836 853.81030273 C1361.22730703 866.88420515 1364.7481634 880.74180178 1368.50854492 894.34130859 C1369.94310405 899.52463083 1371.40507387 904.68536153 1373.03881836 909.81030273 C1388.37689632 959.00913754 1396.75327142 1011.17407568 1402.53100586 1062.26049805 C1402.95111636 1065.96318244 1403.38478615 1069.66406483 1403.82006836 1073.36499023 C1407.45015873 1104.8917079 1408.28327848 1136.13746203 1408.17193604 1167.83538818 C1408.1610657 1171.73538643 1408.16151651 1175.63535052 1408.16193485 1179.53536129 C1408.16099367 1218.87240802 1408.16099367 1218.87240802 1406.97631836 1237.18530273 C1406.92742462 1237.95667572 1406.87853088 1238.72804871 1406.82815552 1239.52279663 C1406.49220527 1244.68568869 1406.09429803 1249.84200657 1405.66381836 1254.99780273 C1405.59973785 1255.77389893 1405.53565735 1256.54999512 1405.46963501 1257.34960938 C1400.46202807 1317.51081214 1391.05377616 1379.06568325 1373.28979492 1436.84106445 C1372.12540606 1440.65345893 1371.034919 1444.48387911 1369.95655823 1448.32136536 C1366.72716381 1459.79480172 1363.23412627 1471.16642406 1359.53881836 1482.49780273 C1359.24052124 1483.41294647 1358.94222412 1484.32809021 1358.6348877 1485.27096558 C1343.37024018 1531.92982459 1324.39946572 1577.03378094 1302.97631836 1621.18530273 C1302.4598877 1622.25135742 1301.94345703 1623.31741211 1301.41137695 1624.41577148 C1281.75381781 1664.7998809 1258.60961799 1703.39830548 1233.72631836 1740.74780273 C1233.13475952 1741.63622864 1232.54320068 1742.52465454 1231.93371582 1743.44000244 C1221.89277167 1758.4993284 1211.62678359 1773.38998586 1200.85131836 1787.93530273 C1200.26568115 1788.72767334 1199.68004395 1789.52004395 1199.07666016 1790.33642578 C1194.12549162 1797.01816561 1189.09117612 1803.62800534 1183.97631836 1810.18530273 C1183.55850098 1810.72396973 1183.14068359 1811.26263672 1182.71020508 1811.81762695 C1171.94583181 1825.69449268 1160.74276613 1839.21660931 1149.34594727 1852.57739258 C1147.91046415 1854.26261394 1146.48043346 1855.95237082 1145.05053711 1857.64233398 C1139.58480337 1864.08259906 1134.02260405 1870.40612081 1128.24804688 1876.57202148 C1125.67687245 1879.32040889 1123.1617873 1882.10535737 1120.69458008 1884.94775391 C1107.91385797 1899.57388668 1094.09077353 1913.22993271 1080.34912109 1926.94287109 C1077.57013611 1929.71610291 1074.79574527 1932.49388108 1072.02260685 1935.2729578 C1069.85296588 1937.4462312 1067.68092592 1939.61709445 1065.5081768 1941.78726006 C1064.48413516 1942.81064279 1063.46081297 1943.83474605 1062.43828011 1944.85963631 C1057.33321392 1949.97391276 1052.21033308 1955.00330768 1046.70982361 1959.69334412 C1043.53910298 1962.42225652 1040.52014287 1965.31664808 1037.47631836 1968.18530273 C1032.39032045 1972.95182998 1027.2797329 1977.66037106 1021.97631836 1982.18530273 C1020.9435478 1983.07176701 1019.91101908 1983.95851308 1018.87866211 1984.84545898 C1016.48890502 1986.89748533 1014.09669337 1988.94660289 1011.70288086 1990.99389648 C1009.23457462 1993.10561208 1006.77128527 1995.22294914 1004.31225586 1997.34545898 C998.52327922 2002.33747082 992.71234265 2007.27292572 986.71069336 2012.00952148 C984.58101132 2013.70413991 982.46976634 2015.41485946 980.36694336 2017.14233398 C972.39742441 2023.68382875 964.31379308 2030.01319402 956.03491211 2036.15795898 C952.56871366 2038.73268169 949.14084384 2041.35395629 945.72094727 2043.98974609 C936.28364772 2051.26066255 926.68181373 2058.2774325 916.97631836 2065.18530273 C916.26330566 2065.69544922 915.55029297 2066.2055957 914.81567383 2066.73120117 C873.43035794 2096.29615843 830.29584117 2123.26211111 785.97631836 2148.18530273 C785.26040527 2148.58942383 784.54449219 2148.99354492 783.80688477 2149.40991211 C778.55081281 2152.37332633 773.26950921 2155.28878181 767.97631836 2158.18530273 C767.04190918 2158.69834961 766.1075 2159.21139648 765.14477539 2159.73999023 C733.08320622 2177.29273364 700.33831571 2193.55325095 666.90710449 2208.32897949 C664.99639123 2209.17640021 663.08884749 2210.03054095 661.18237305 2210.88745117 C611.9984736 2232.99431296 561.41643299 2251.91158144 510.11791992 2268.49249268 C507.98527978 2269.18240371 505.85377176 2269.87572452 503.72241211 2270.56958008 C473.7675157 2280.30222334 443.43300407 2288.69472673 412.96606445 2296.66278076 C410.36779535 2297.34510536 407.7733726 2298.04136754 405.17944336 2298.73999023 C389.21614702 2303.01474647 373.12532463 2306.69037531 356.97631836 2310.18530273 C356.24928711 2310.34299133 355.52225586 2310.50067993 354.77319336 2310.66314697 C328.70346575 2316.30536867 302.50895282 2320.99354241 276.19165039 2325.32299805 C271.79230569 2326.04762406 267.3975067 2326.79526659 263.00366211 2327.55249023 C214.8248728 2335.7516013 165.99747517 2341.33600684 117.19311523 2343.95166016 C114.85890952 2344.12119832 112.52949942 2344.36144699 110.20629883 2344.64428711 C76.47820882 2348.46384637 42.05653706 2347.47128494 8.18444824 2347.38092041 C3.05582608 2347.37005918 -2.07277004 2347.37050074 -7.20140171 2347.37091923 C-40.79815835 2347.37030793 -74.30139477 2347.10617023 -107.83618164 2344.87280273 C-108.81837677 2344.80838989 -109.8005719 2344.74397705 -110.81253052 2344.6776123 C-162.10575589 2341.29032866 -213.29648209 2335.5439454 -264.02368164 2327.18530273 C-265.0374588 2327.01898346 -265.0374588 2327.01898346 -266.07171631 2326.8493042 C-301.39588269 2321.04837907 -336.45266659 2314.35094256 -371.30737305 2306.18139648 C-374.91376054 2305.33648173 -378.5220387 2304.50004378 -382.13140869 2303.66796875 C-384.16546122 2303.19591336 -386.19681681 2302.71331635 -388.22827148 2302.23022461 C-389.45368652 2301.94727539 -390.67910156 2301.66432617 -391.94165039 2301.37280273 C-393.5623645 2300.99188477 -393.5623645 2300.99188477 -395.21582031 2300.60327148 C-399.481047 2299.96836425 -401.94454781 2300.9264409 -405.46508789 2303.26733398 C-406.44747437 2303.9131543 -406.44747437 2303.9131543 -407.44970703 2304.57202148 C-408.15474365 2305.0425293 -408.85978027 2305.51303711 -409.58618164 2305.99780273 C-411.13775383 2307.01550953 -412.68985502 2308.03241019 -414.24243164 2309.04858398 C-415.04036133 2309.57274902 -415.83829102 2310.09691406 -416.66040039 2310.63696289 C-434.09773092 2322.06129659 -452.03937779 2332.65256948 -470.02368164 2343.18530273 C-470.63443542 2343.54319885 -471.24518921 2343.90109497 -471.87445068 2344.26983643 C-517.12528817 2370.75930369 -564.08844515 2394.78379867 -612.23364258 2415.54223633 C-615.69028119 2417.03533607 -619.12884311 2418.56630678 -622.56274414 2420.11108398 C-709.0798428 2458.9799793 -801.1586822 2487.84197546 -970.02368164 2523.18530273 C-968.45470378 2519.11546925 -965.53418914 2516.73308678 -962.33618164 2513.93530273 C-956.43739471 2508.64017826 -951.00643815 2503.01843119 -945.63037109 2497.19799805 C-941.52222149 2492.75888023 -937.32781543 2488.43438365 -933.02368164 2484.18530273 C-929.17532648 2480.37798453 -925.4557305 2476.52589019 -921.95336914 2472.39624023 C-919.26356816 2469.31440348 -916.44892607 2466.35410603 -913.64868164 2463.37280273 C-908.9464416 2458.35085042 -904.50191159 2453.20199571 -900.19946289 2447.82983398 C-897.89336464 2445.02691026 -895.48216633 2442.35526998 -893.02368164 2439.68530273 C-888.60991052 2434.87889553 -884.46007854 2429.9142019 -880.36499023 2424.83569336 C-878.82181127 2422.93691473 -877.26177367 2421.05274535 -875.69946289 2419.16967773 C-869.13860808 2411.25969446 -862.68746238 2403.30244941 -856.48461914 2395.10717773 C-854.75690837 2392.83436035 -853.0153749 2390.57242226 -851.27368164 2388.31030273 C-843.46724502 2378.15163887 -835.85350021 2367.90023285 -828.54956055 2357.37475586 C-826.92084824 2355.03774914 -825.27643971 2352.71237353 -823.62915039 2350.38842773 C-815.45967543 2338.84066657 -807.63955964 2327.10446139 -800.02368164 2315.18530273 C-799.52126953 2314.4033252 -799.01885742 2313.62134766 -798.5012207 2312.81567383 C-782.00768545 2287.13104363 -766.76776896 2260.64840887 -752.78540039 2233.51733398 C-751.13172463 2230.30919167 -749.45800018 2227.11612549 -747.73071289 2223.94702148 C-742.8153763 2214.91525672 -738.36233348 2205.69235911 -734.02368164 2196.37280273 C-733.73188019 2195.74822174 -733.44007874 2195.12364075 -733.13943481 2194.48013306 C-732.30477006 2192.68989706 -731.47660723 2190.89663408 -730.64868164 2189.10327148 C-730.16657227 2188.05937256 -729.68446289 2187.01547363 -729.18774414 2185.93994141 C-728.22829844 2183.66950815 -727.51936069 2181.59057089 -727.02368164 2179.18530273 C-729.71086175 2177.76802688 -732.39842585 2176.35148624 -735.08618164 2174.93530273 C-735.93599609 2174.48711182 -736.78581055 2174.0389209 -737.66137695 2173.57714844 C-742.29754401 2171.13513692 -746.94033894 2168.70737798 -751.59790039 2166.30639648 C-764.29037638 2159.75412964 -776.77245679 2152.90103606 -789.1706543 2145.80883789 C-791.9716272 2144.21492468 -794.78246199 2142.64022018 -797.59790039 2141.07202148 C-839.1684835 2117.87928628 -879.29271938 2091.84411157 -918.02368164 2064.18530273 C-918.75973633 2063.66242676 -919.49579102 2063.13955078 -920.25415039 2062.60083008 C-937.5551631 2050.30065547 -954.40227848 2037.38657444 -971.02368164 2024.18530273 C-971.85254883 2023.52788086 -972.68141602 2022.87045898 -973.53540039 2022.19311523 C-976.03842089 2020.19897329 -978.53232623 2018.19400239 -981.02368164 2016.18530273 C-981.6034375 2015.71898438 -982.18319336 2015.25266602 -982.78051758 2014.7722168 C-990.65129853 2008.43641801 -998.44601893 2002.03140615 -1006.08740234 1995.42016602 C-1009.49217554 1992.47872979 -1012.94608965 1989.62030253 -1016.46118164 1986.81030273 C-1022.44161501 1981.96225912 -1027.9920436 1976.68173781 -1033.59008789 1971.40405273 C-1036.06761974 1969.07100474 -1038.57134006 1966.78346418 -1041.14868164 1964.56030273 C-1049.31245539 1957.51704695 -1057.23118432 1950.16270719 -1064.73071289 1942.41577148 C-1066.60749347 1940.59014676 -1068.51168529 1938.89938607 -1070.50024414 1937.20092773 C-1075.8852488 1932.52334158 -1080.89275958 1927.46592614 -1085.92382812 1922.41552734 C-1087.58295484 1920.75103996 -1089.24736216 1919.09196827 -1090.91235352 1917.43334961 C-1095.97378482 1912.37475357 -1100.9400067 1907.28265289 -1105.58984375 1901.83740234 C-1107.61903073 1899.49932839 -1109.80650057 1897.34413693 -1112.02368164 1895.18530273 C-1115.52961207 1891.71622143 -1118.85167427 1888.18250947 -1122.05493164 1884.43530273 C-1124.10159857 1882.09625481 -1126.20805309 1879.8243375 -1128.3293457 1877.55322266 C-1133.37752155 1872.14771637 -1138.17960817 1866.63550254 -1142.81274414 1860.86499023 C-1145.13303115 1858.05276959 -1147.55439298 1855.36733011 -1150.02368164 1852.68530273 C-1154.91736424 1847.35562384 -1159.48576008 1841.81833786 -1164.02368164 1836.18530273 C-1165.05662397 1834.92023475 -1166.09053822 1833.65595993 -1167.12524414 1832.39233398 C-1173.39374791 1824.72918085 -1179.55778722 1817.00781939 -1185.54663086 1809.12329102 C-1187.28286087 1806.84524245 -1189.03027019 1804.57595111 -1190.77758789 1802.30639648 C-1198.62657239 1792.09000382 -1206.26919151 1781.77387423 -1213.61889648 1771.19311523 C-1214.98443731 1769.24139334 -1216.36897037 1767.30500213 -1217.76196289 1765.37280273 C-1238.97483296 1735.86907836 -1258.14112901 1704.79264498 -1276.02368164 1673.18530273 C-1276.65306641 1672.07751465 -1277.28245117 1670.96972656 -1277.9309082 1669.82836914 C-1286.66488411 1654.4268787 -1294.87157856 1638.83273935 -1302.66772461 1622.93676758 C-1304.1222741 1619.98524206 -1305.60900631 1617.05163218 -1307.10424805 1614.12060547 C-1325.95296239 1577.0087582 -1341.14133249 1538.38060094 -1355.02368164 1499.18530273 C-1355.29821167 1498.41156311 -1355.5727417 1497.63782349 -1355.85559082 1496.84063721 C-1361.43709136 1481.09550037 -1366.81484652 1465.36142808 -1371.02368164 1449.18530273 C-1371.68382919 1446.8709333 -1372.35031872 1444.55836177 -1373.02368164 1442.24780273 C-1375.04378278 1435.20584374 -1376.90840779 1428.12706474 -1378.75024414 1421.03686523 C-1379.52943942 1418.04385948 -1380.33221972 1415.06025126 -1381.17211914 1412.08374023 C-1389.74166089 1381.37651834 -1394.84061922 1349.78989449 -1399.69320679 1318.32601929 C-1399.99109667 1316.39637839 -1400.29199464 1314.46720245 -1400.59326172 1312.53808594 C-1403.80763616 1291.87869337 -1406.25929371 1271.28950233 -1407.71118164 1250.43530273 C-1407.77175751 1249.56563873 -1407.83233337 1248.69597473 -1407.89474487 1247.79995728 C-1408.07030143 1245.24634431 -1408.2417195 1242.6925037 -1408.41040039 1240.13842773 C-1408.482034 1239.05500343 -1408.482034 1239.05500343 -1408.55511475 1237.94969177 C-1408.72017021 1235.36203385 -1408.87261045 1232.77381779 -1409.02368164 1230.18530273 C-1409.06337381 1229.53199478 -1409.10306599 1228.87868683 -1409.14396095 1228.20558167 C-1409.87338709 1216.08928478 -1410.21023096 1204.00987858 -1410.26196289 1191.87280273 C-1410.26919782 1190.54902933 -1410.26919782 1190.54902933 -1410.2765789 1189.19851303 C-1410.31246983 1182.52744796 -1410.3284747 1175.85645475 -1410.33618164 1169.18530273 C-1410.3376268 1168.20574867 -1410.33907196 1167.22619461 -1410.34056091 1166.21695709 C-1410.37813154 1134.69656773 -1409.66403445 1103.52978144 -1406.02368164 1072.18530273 C-1405.93926819 1071.44423279 -1405.85485474 1070.70316284 -1405.7678833 1069.93963623 C-1404.84836284 1061.90199934 -1403.76695636 1053.89482277 -1402.56665039 1045.89428711 C-1401.95398348 1041.70919912 -1401.39131627 1037.51895465 -1400.83618164 1033.32592773 C-1397.38709618 1007.39780714 -1392.85287691 981.89401277 -1386.78979492 956.43676758 C-1386.01412863 953.14475878 -1385.26315435 949.84802429 -1384.51977539 946.54858398 C-1381.38386673 932.65001558 -1377.97069682 918.87630295 -1374.02368164 905.18530273 C-1373.71092285 904.09894531 -1373.39816406 903.01258789 -1373.07592773 901.89331055 C-1359.96179821 856.6568599 -1344.41769399 812.12693619 -1325.02368164 769.18530273 C-1324.54979004 768.13004395 -1324.07589844 767.07478516 -1323.58764648 765.98754883 C-1320.45611908 759.02677351 -1317.26272999 752.09665527 -1314.02368164 745.18530273 C-1313.56171387 744.19820312 -1313.09974609 743.21110352 -1312.6237793 742.1940918 C-1300.7781778 716.97599604 -1287.99965247 692.2888991 -1274.02368164 668.18530273 C-1273.34319882 667.00732617 -1272.66286674 665.82926252 -1271.98266602 664.65112305 C-1264.21637287 651.21136375 -1256.44532143 637.78619158 -1247.81860352 624.87475586 C-1245.96369604 622.09542224 -1244.11894364 619.30953679 -1242.27510071 616.52285767 C-1221.92822287 585.78162889 -1221.92822287 585.78162889 -1212.02368164 572.18530273 C-1211.21374756 571.07106934 -1211.21374756 571.07106934 -1210.38745117 569.93432617 C-1202.10024782 558.5566234 -1193.6388425 547.3164695 -1185.02368164 536.18530273 C-1184.55897461 535.58411621 -1184.09426758 534.98292969 -1183.61547852 534.36352539 C-1172.4793665 519.98672466 -1160.84883868 505.99897688 -1149.02368164 492.18530273 C-1148.51482422 491.59007812 -1148.0059668 490.99485352 -1147.48168945 490.3815918 C-1141.20037612 483.04639246 -1134.84461832 475.79880864 -1128.24462891 468.74780273 C-1125.6953026 466.02076443 -1123.20263056 463.25647757 -1120.75585938 460.43676758 C-1108.76639296 446.71567407 -1095.85382591 433.85404913 -1082.95996094 420.99121094 C-1080.54417544 418.58118711 -1078.13300008 416.16660802 -1075.72306156 413.7507391 C-1073.37909321 411.40226442 -1071.03129753 409.05763142 -1068.68383789 406.71264648 C-1067.83161148 405.85839584 -1066.97938507 405.0041452 -1066.10133362 404.12400818 C-1061.76612287 399.80562923 -1057.36137992 395.64037328 -1052.72206116 391.65010071 C-1050.72761793 389.92995726 -1048.81007655 388.1420695 -1046.91040039 386.31811523 C-1046.22558594 385.66488281 -1045.54077148 385.01165039 -1044.83520508 384.33862305 C-1044.13427734 383.66927734 -1043.43334961 382.99993164 -1042.71118164 382.31030273 C-1037.20304601 377.08390096 -1031.6422683 372.10975639 -1025.69555664 367.38842773 C-1022.52106768 364.77086666 -1019.52554922 361.99714544 -1016.52368164 359.18530273 C-1011.85087858 354.81920349 -1007.07798387 350.66179449 -1002.09008789 346.65405273 C-999.00745445 344.1722383 -995.95721176 341.65474823 -992.90966797 339.13012695 C-985.33453332 332.85971567 -977.68806331 326.69687793 -969.92358398 320.6628418 C-967.80453966 319.01487775 -965.68945069 317.36190679 -963.57446289 315.70874023 C-952.29804596 306.90321831 -940.92727516 298.26142138 -929.33618164 289.87280273 C-928.66651367 289.38803467 -927.9968457 288.9032666 -927.30688477 288.40380859 C-924.88415667 286.65721025 -922.45500928 284.91991564 -920.02368164 283.18530273 C-919.16935043 282.57542007 -919.16935043 282.57542007 -918.29776001 281.95321655 C-907.09585064 273.96828617 -895.76278524 266.18668904 -884.35839844 258.49414062 C-881.58969069 256.62517146 -878.82520175 254.75007299 -876.06079102 252.87475586 C-865.5415839 245.7605451 -854.90950774 238.9150803 -844.01852417 232.384552 C-841.01921147 230.58144048 -838.0379163 228.74967784 -835.05493164 226.91967773 C-813.59696287 213.81256959 -791.92483052 201.14992087 -769.75805664 189.27124023 C-766.16816567 187.34714478 -762.59445223 185.39939875 -759.03930664 183.41186523 C-730.43917522 167.46379471 -700.86003197 153.3123162 -670.93884277 140.0368042 C-668.36582714 138.89281347 -665.79654958 137.74056619 -663.22740173 136.58792114 C-660.1816043 135.22168686 -657.13397542 133.85957846 -654.08618164 132.49780273 C-653.00876709 132.01633789 -651.93135254 131.53487305 -650.82128906 131.03881836 C-645.4935422 128.67337489 -640.14620047 126.40275195 -634.72363281 124.26416016 C-631.50965319 122.97990516 -628.31778945 121.64694395 -625.12524414 120.31030273 C-623.89089227 119.79462237 -622.65651699 119.27899803 -621.42211914 118.76342773 C-619.53711062 117.97580883 -617.65265774 117.18697666 -615.76977539 116.39428711 C-608.4518873 113.31588534 -601.13047898 110.43382698 -593.55566406 108.03857422 C-591.18756913 107.24053239 -588.96983507 106.31240714 -586.71118164 105.24780273 C-581.47896869 102.82265294 -576.00806176 101.12688165 -570.53540039 99.34155273 C-567.30829755 98.27901387 -564.13201847 97.14388884 -560.96118164 95.92749023 C-553.7889284 93.18005452 -546.55015615 90.66009512 -539.23852539 88.31030273 C-536.62250321 87.3948539 -534.09764634 86.39705514 -531.53930664 85.33764648 C-525.09737731 82.73680402 -518.48007474 80.76201857 -511.83618164 78.74780273 C-500.51125064 75.28981271 -500.51125064 75.28981271 -489.27368164 71.56030273 C-479.6485573 68.29564068 -469.81902014 65.70446738 -460.0222168 63.01098633 C-457.32704903 62.26883868 -454.63381809 61.52027859 -451.94165039 60.76733398 C-444.07656267 58.56799326 -436.20203733 56.41194903 -428.30493164 54.32983398 C-425.08932581 53.47742123 -421.88401986 52.59172049 -418.67993164 51.69702148 C-391.93027509 44.27882903 -364.82854114 38.29455331 -337.64868164 32.68530273 C-336.8210733 32.51354523 -335.99346497 32.34178772 -335.14077759 32.16482544 C-320.55280185 29.14768679 -320.55280185 29.14768679 -314.85961914 28.59155273 C-311.03537909 28.18654157 -307.70423401 27.26707243 -304.02368164 26.18530273 C-301.55087142 25.80769439 -299.07083951 25.47487785 -296.58618164 25.18530273 C-291.99716638 24.64935935 -287.67253818 23.85885732 -283.20458984 22.68920898 C-278.96630252 21.7099383 -274.64758058 21.23287748 -270.33618164 20.68530273 C-264.52726772 19.93175866 -258.72873977 19.15179098 -252.94165039 18.24389648 C-244.65262092 16.95243417 -236.33873484 15.85614685 -228.02368164 14.74780273 C-214.51072816 12.95323897 -214.51072816 12.95323897 -201.02490234 10.96801758 C-175.45312563 7.04669752 -149.47010804 5.08444701 -123.64599609 3.78076172 C-122.3449292 3.71445557 -121.0438623 3.64814941 -119.70336914 3.57983398 C-118.57656738 3.52674072 -117.44976563 3.47364746 -116.28881836 3.41894531 C-113.02827207 3.22870003 -113.02827207 3.22870003 -109.84266663 2.70370483 C-105.7730563 2.15128199 -101.75322535 1.86460055 -97.65478516 1.65722656 C-96.86910188 1.61586232 -96.0834186 1.57449808 -95.27392673 1.53188038 C-87.16098064 1.11850657 -79.04665287 0.84044782 -70.92602539 0.63452148 C-70.11974134 0.61370703 -69.3134573 0.59289257 -68.4827404 0.57144737 C-45.65890513 0.00008133 -22.82966501 -0.00196691 0 0 Z " fill="#FEFEFE" transform="translate(1921.023681640625,664.814697265625)"/>
</svg>
